<svg xmlns="http://www.w3.org/2000/svg" xmlns:xlink="http://www.w3.org/1999/xlink" width="50" zoomAndPan="magnify" viewBox="0 0 135 135.000003" height="50" preserveAspectRatio="xMidYMid meet" version="1.0"><defs><clipPath id="f5e7db6bd0"><path d="M 41 31.058594 L 134 31.058594 L 134 112.800781 L 41 112.800781 Z M 41 31.058594 " clip-rule="nonzero"/></clipPath><clipPath id="859de344ce"><path d="M 40.152344 17.0625 L 94.847656 17.0625 L 94.847656 90.5625 L 40.152344 90.5625 Z M 40.152344 17.0625 " clip-rule="nonzero"/></clipPath><clipPath id="98318f56cb"><path d="M 67.5 17.0625 C 52.394531 17.0625 40.152344 33.457031 40.152344 53.683594 C 40.152344 73.90625 52.394531 90.300781 67.5 90.300781 C 82.605469 90.300781 94.847656 73.90625 94.847656 53.683594 C 94.847656 33.457031 82.605469 17.0625 67.5 17.0625 " clip-rule="nonzero"/></clipPath><clipPath id="c4f5055386"><path d="M 1 31.058594 L 94.972656 31.058594 L 94.972656 112.800781 L 1 112.800781 Z M 1 31.058594 " clip-rule="nonzero"/></clipPath><clipPath id="8346281eb5"><path d="M 51.203125 55.945312 L 82 55.945312 L 82 82.746094 L 51.203125 82.746094 Z M 51.203125 55.945312 " clip-rule="nonzero"/></clipPath><clipPath id="80f21c016d"><path d="M 66.734375 82.769531 L 97.554688 82.769531 L 97.554688 109.570312 L 66.734375 109.570312 Z M 66.734375 82.769531 " clip-rule="nonzero"/></clipPath><clipPath id="2f5ef71f2b"><path d="M 82.261719 55.945312 L 113 55.945312 L 113 82.746094 L 82.261719 82.746094 Z M 82.261719 55.945312 " clip-rule="nonzero"/></clipPath><clipPath id="be9bba3ca6"><path d="M 97.792969 82.769531 L 128.617188 82.769531 L 128.617188 109.570312 L 97.792969 109.570312 Z M 97.792969 82.769531 " clip-rule="nonzero"/></clipPath><clipPath id="ef4c8ab7b2"><path d="M 35.671875 82.769531 L 66.496094 82.769531 L 66.496094 109.570312 L 35.671875 109.570312 Z M 35.671875 82.769531 " clip-rule="nonzero"/></clipPath><clipPath id="2a29d2c720"><path d="M 20.144531 55.945312 L 50.964844 55.945312 L 50.964844 82.746094 L 20.144531 82.746094 Z M 20.144531 55.945312 " clip-rule="nonzero"/></clipPath><clipPath id="5f6884380c"><path d="M 4.613281 82.769531 L 35.433594 82.769531 L 35.433594 109.570312 L 4.613281 109.570312 Z M 4.613281 82.769531 " clip-rule="nonzero"/></clipPath><clipPath id="2dbc02318b"><path d="M 66.734375 29.121094 L 97.554688 29.121094 L 97.554688 55.921875 L 66.734375 55.921875 Z M 66.734375 29.121094 " clip-rule="nonzero"/></clipPath><clipPath id="9bec1304b9"><path d="M 36.441406 29.121094 L 67.261719 29.121094 L 67.261719 55.921875 L 36.441406 55.921875 Z M 36.441406 29.121094 " clip-rule="nonzero"/></clipPath></defs><g clip-path="url(#f5e7db6bd0)"><path fill="#2fb267" d="M 41.605469 107.304688 L 84.222656 33.5 C 85.632812 31.058594 89.148438 31.058594 90.554688 33.5 L 133.175781 107.320312 C 134.582031 109.765625 132.824219 112.800781 130.007812 112.800781 L 44.769531 112.800781 C 41.957031 112.78125 40.195312 109.746094 41.605469 107.304688 Z M 41.605469 107.304688 " fill-opacity="1" fill-rule="nonzero"/></g><g clip-path="url(#859de344ce)"><g clip-path="url(#98318f56cb)"><path fill="#2fb267" d="M 40.152344 17.0625 L 94.847656 17.0625 L 94.847656 90.5625 L 40.152344 90.5625 Z M 40.152344 17.0625 " fill-opacity="1" fill-rule="nonzero"/></g></g><g clip-path="url(#c4f5055386)"><path fill="#2fb267" d="M 1.949219 107.304688 L 44.566406 33.5 C 45.976562 31.058594 49.492188 31.058594 50.898438 33.5 L 93.519531 107.320312 C 94.925781 109.765625 93.167969 112.800781 90.355469 112.800781 L 5.113281 112.800781 C 2.300781 112.78125 0.542969 109.746094 1.949219 107.304688 Z M 1.949219 107.304688 " fill-opacity="1" fill-rule="nonzero"/></g><g clip-path="url(#8346281eb5)"><path fill="#187942" d="M 67.25 56.296875 C 67.183594 56.195312 67.097656 56.113281 66.988281 56.058594 C 66.882812 56 66.769531 55.972656 66.648438 55.972656 C 66.527344 55.972656 66.414062 56 66.308594 56.058594 C 66.203125 56.113281 66.113281 56.195312 66.046875 56.296875 L 51.484375 81.691406 C 51.351562 81.925781 51.351562 82.15625 51.484375 82.390625 C 51.617188 82.621094 51.816406 82.738281 52.082031 82.738281 L 81.214844 82.738281 C 81.480469 82.738281 81.679688 82.621094 81.816406 82.390625 C 81.949219 82.15625 81.949219 81.925781 81.816406 81.691406 Z M 67.25 56.296875 " fill-opacity="1" fill-rule="nonzero"/></g><g clip-path="url(#80f21c016d)"><path fill="#5fd190" d="M 82.78125 83.121094 C 82.710938 83.019531 82.625 82.9375 82.519531 82.882812 C 82.414062 82.824219 82.300781 82.796875 82.179688 82.796875 C 82.058594 82.796875 81.945312 82.824219 81.839844 82.882812 C 81.730469 82.9375 81.644531 83.019531 81.578125 83.121094 L 67.011719 108.515625 C 66.878906 108.75 66.878906 108.980469 67.011719 109.214844 C 67.148438 109.445312 67.347656 109.5625 67.613281 109.5625 L 96.742188 109.5625 C 97.011719 109.5625 97.210938 109.445312 97.34375 109.214844 C 97.476562 108.980469 97.476562 108.75 97.34375 108.515625 Z M 82.78125 83.121094 " fill-opacity="1" fill-rule="nonzero"/></g><g clip-path="url(#2f5ef71f2b)"><path fill="#8fe670" d="M 98.308594 56.296875 C 98.242188 56.195312 98.15625 56.113281 98.050781 56.058594 C 97.941406 56 97.828125 55.972656 97.710938 55.972656 C 97.589844 55.972656 97.476562 56 97.367188 56.058594 C 97.261719 56.113281 97.175781 56.195312 97.109375 56.296875 L 82.542969 81.691406 C 82.410156 81.925781 82.410156 82.15625 82.542969 82.390625 C 82.675781 82.621094 82.878906 82.738281 83.144531 82.738281 L 112.273438 82.738281 C 112.542969 82.738281 112.742188 82.621094 112.875 82.390625 C 113.007812 82.15625 113.007812 81.925781 112.875 81.691406 Z M 98.308594 56.296875 " fill-opacity="1" fill-rule="nonzero"/></g><g clip-path="url(#be9bba3ca6)"><path fill="#187942" d="M 113.839844 83.121094 C 113.773438 83.019531 113.6875 82.9375 113.578125 82.882812 C 113.472656 82.824219 113.359375 82.796875 113.238281 82.796875 C 113.117188 82.796875 113.003906 82.824219 112.898438 82.882812 C 112.792969 82.9375 112.707031 83.019531 112.636719 83.121094 L 98.074219 108.515625 C 97.941406 108.75 97.941406 108.980469 98.074219 109.214844 C 98.207031 109.445312 98.40625 109.5625 98.675781 109.5625 L 127.804688 109.5625 C 128.070312 109.5625 128.269531 109.445312 128.40625 109.214844 C 128.539062 108.980469 128.539062 108.75 128.40625 108.515625 Z M 113.839844 83.121094 " fill-opacity="1" fill-rule="nonzero"/></g><g clip-path="url(#ef4c8ab7b2)"><path fill="#187942" d="M 51.71875 83.121094 C 51.652344 83.019531 51.566406 82.9375 51.460938 82.882812 C 51.351562 82.824219 51.238281 82.796875 51.117188 82.796875 C 50.996094 82.796875 50.882812 82.824219 50.777344 82.882812 C 50.671875 82.9375 50.585938 83.019531 50.519531 83.121094 L 35.953125 108.515625 C 35.820312 108.75 35.820312 108.980469 35.953125 109.214844 C 36.085938 109.445312 36.285156 109.5625 36.554688 109.5625 L 65.683594 109.5625 C 65.949219 109.5625 66.152344 109.445312 66.285156 109.214844 C 66.417969 108.980469 66.417969 108.75 66.285156 108.515625 Z M 51.71875 83.121094 " fill-opacity="1" fill-rule="nonzero"/></g><g clip-path="url(#2a29d2c720)"><path fill="#5fd190" d="M 36.1875 56.296875 C 36.121094 56.195312 36.035156 56.113281 35.929688 56.058594 C 35.824219 56 35.710938 55.972656 35.589844 55.972656 C 35.46875 55.972656 35.355469 56 35.246094 56.058594 C 35.140625 56.113281 35.054688 56.195312 34.988281 56.296875 L 20.421875 81.691406 C 20.289062 81.925781 20.289062 82.15625 20.421875 82.390625 C 20.554688 82.621094 20.757812 82.738281 21.023438 82.738281 L 50.152344 82.738281 C 50.421875 82.738281 50.621094 82.621094 50.753906 82.390625 C 50.886719 82.15625 50.886719 81.925781 50.753906 81.691406 Z M 36.1875 56.296875 " fill-opacity="1" fill-rule="nonzero"/></g><g clip-path="url(#5f6884380c)"><path fill="#8fe670" d="M 20.660156 83.121094 C 20.59375 83.019531 20.503906 82.9375 20.398438 82.882812 C 20.292969 82.824219 20.179688 82.796875 20.058594 82.796875 C 19.9375 82.796875 19.824219 82.824219 19.71875 82.882812 C 19.613281 82.9375 19.523438 83.019531 19.457031 83.121094 L 4.894531 108.515625 C 4.757812 108.75 4.757812 108.980469 4.894531 109.214844 C 5.027344 109.445312 5.226562 109.5625 5.492188 109.5625 L 34.625 109.5625 C 34.890625 109.5625 35.089844 109.445312 35.222656 109.214844 C 35.359375 108.980469 35.359375 108.75 35.222656 108.515625 Z M 20.660156 83.121094 " fill-opacity="1" fill-rule="nonzero"/></g><g clip-path="url(#2dbc02318b)"><path fill="#5fd190" d="M 82.78125 29.46875 C 82.710938 29.367188 82.625 29.289062 82.519531 29.230469 C 82.414062 29.175781 82.300781 29.144531 82.179688 29.144531 C 82.058594 29.144531 81.945312 29.175781 81.839844 29.230469 C 81.730469 29.289062 81.644531 29.367188 81.578125 29.46875 L 67.011719 54.867188 C 66.878906 55.097656 66.878906 55.332031 67.011719 55.566406 C 67.148438 55.796875 67.347656 55.914062 67.613281 55.914062 L 96.742188 55.914062 C 97.011719 55.914062 97.210938 55.796875 97.34375 55.566406 C 97.476562 55.332031 97.476562 55.097656 97.34375 54.867188 Z M 82.78125 29.46875 " fill-opacity="1" fill-rule="nonzero"/></g><g clip-path="url(#9bec1304b9)"><path fill="#187942" d="M 52.484375 29.46875 C 52.417969 29.367188 52.332031 29.289062 52.226562 29.230469 C 52.121094 29.175781 52.007812 29.144531 51.886719 29.144531 C 51.765625 29.144531 51.652344 29.175781 51.542969 29.230469 C 51.4375 29.289062 51.351562 29.367188 51.285156 29.46875 L 36.71875 54.867188 C 36.585938 55.097656 36.585938 55.332031 36.71875 55.566406 C 36.851562 55.796875 37.054688 55.914062 37.320312 55.914062 L 66.449219 55.914062 C 66.71875 55.914062 66.917969 55.796875 67.050781 55.566406 C 67.183594 55.332031 67.183594 55.097656 67.050781 54.867188 Z M 52.484375 29.46875 " fill-opacity="1" fill-rule="nonzero"/></g></svg>