<svg xmlns="http://www.w3.org/2000/svg" xmlns:xlink="http://www.w3.org/1999/xlink" width="50" zoomAndPan="magnify" viewBox="0 0 135 135.000003" height="50" preserveAspectRatio="xMidYMid meet" version="1.0"><defs><clipPath id="bcf35175f2"><path d="M 41 31.058594 L 134 31.058594 L 134 112.949219 L 41 112.949219 Z M 41 31.058594 " clip-rule="nonzero"/></clipPath><clipPath id="eda1c86b70"><path d="M 40.152344 17.0625 L 94.847656 17.0625 L 94.847656 90.5625 L 40.152344 90.5625 Z M 40.152344 17.0625 " clip-rule="nonzero"/></clipPath><clipPath id="3ddc21cdbe"><path d="M 67.5 17.0625 C 52.394531 17.0625 40.152344 33.457031 40.152344 53.683594 C 40.152344 73.90625 52.394531 90.300781 67.5 90.300781 C 82.605469 90.300781 94.847656 73.90625 94.847656 53.683594 C 94.847656 33.457031 82.605469 17.0625 67.5 17.0625 " clip-rule="nonzero"/></clipPath><clipPath id="4fb167858e"><path d="M 1 31.058594 L 95 31.058594 L 95 112.949219 L 1 112.949219 Z M 1 31.058594 " clip-rule="nonzero"/></clipPath><clipPath id="a3679e6c91"><path d="M 51.203125 55.945312 L 82.472656 55.945312 L 82.472656 82.746094 L 51.203125 82.746094 Z M 51.203125 55.945312 " clip-rule="nonzero"/></clipPath><clipPath id="86f6adec5d"><path d="M 66.734375 82.769531 L 98 82.769531 L 98 109.570312 L 66.734375 109.570312 Z M 66.734375 82.769531 " clip-rule="nonzero"/></clipPath><clipPath id="ea5aff61c1"><path d="M 82.261719 55.945312 L 113.53125 55.945312 L 113.53125 82.746094 L 82.261719 82.746094 Z M 82.261719 55.945312 " clip-rule="nonzero"/></clipPath><clipPath id="929a82013d"><path d="M 97.792969 82.769531 L 129 82.769531 L 129 109.570312 L 97.792969 109.570312 Z M 97.792969 82.769531 " clip-rule="nonzero"/></clipPath><clipPath id="f3259aba42"><path d="M 35.671875 82.769531 L 66.941406 82.769531 L 66.941406 109.570312 L 35.671875 109.570312 Z M 35.671875 82.769531 " clip-rule="nonzero"/></clipPath><clipPath id="70bd38c80e"><path d="M 20.144531 55.945312 L 51.410156 55.945312 L 51.410156 82.746094 L 20.144531 82.746094 Z M 20.144531 55.945312 " clip-rule="nonzero"/></clipPath><clipPath id="302fc077a4"><path d="M 4.613281 82.769531 L 35.882812 82.769531 L 35.882812 109.570312 L 4.613281 109.570312 Z M 4.613281 82.769531 " clip-rule="nonzero"/></clipPath><clipPath id="187f1fc494"><path d="M 66.734375 29.121094 L 98 29.121094 L 98 55.921875 L 66.734375 55.921875 Z M 66.734375 29.121094 " clip-rule="nonzero"/></clipPath><clipPath id="9b80ac7ae8"><path d="M 36.441406 29.121094 L 67.707031 29.121094 L 67.707031 55.921875 L 36.441406 55.921875 Z M 36.441406 29.121094 " clip-rule="nonzero"/></clipPath></defs><g clip-path="url(#bcf35175f2)"><path fill="#2fb267" d="M 41.601562 107.441406 L 84.257812 33.503906 C 85.667969 31.058594 89.1875 31.058594 90.597656 33.503906 L 133.253906 107.460938 C 134.660156 109.910156 132.902344 112.949219 130.085938 112.949219 L 44.769531 112.949219 C 41.953125 112.933594 40.191406 109.890625 41.601562 107.441406 Z M 41.601562 107.441406 " fill-opacity="1" fill-rule="nonzero"/></g><g clip-path="url(#eda1c86b70)"><g clip-path="url(#3ddc21cdbe)"><path fill="#2fb267" d="M 40.152344 17.0625 L 94.847656 17.0625 L 94.847656 90.5625 L 40.152344 90.5625 Z M 40.152344 17.0625 " fill-opacity="1" fill-rule="nonzero"/></g></g><g clip-path="url(#4fb167858e)"><path fill="#2fb267" d="M 1.945312 107.441406 L 44.601562 33.503906 C 46.011719 31.058594 49.53125 31.058594 50.941406 33.503906 L 93.597656 107.460938 C 95.003906 109.910156 93.246094 112.949219 90.429688 112.949219 L 5.113281 112.949219 C 2.296875 112.933594 0.539062 109.890625 1.945312 107.441406 Z M 1.945312 107.441406 " fill-opacity="1" fill-rule="nonzero"/></g><g clip-path="url(#a3679e6c91)"><path fill="#187942" d="M 67.480469 56.296875 C 67.414062 56.195312 67.324219 56.113281 67.21875 56.058594 C 67.109375 56 66.996094 55.972656 66.871094 55.972656 C 66.75 55.972656 66.636719 56 66.527344 56.058594 C 66.417969 56.113281 66.332031 56.195312 66.265625 56.296875 L 51.496094 81.691406 C 51.359375 81.925781 51.359375 82.15625 51.496094 82.390625 C 51.632812 82.621094 51.835938 82.738281 52.105469 82.738281 L 81.640625 82.738281 C 81.910156 82.738281 82.113281 82.621094 82.25 82.390625 C 82.382812 82.15625 82.382812 81.925781 82.25 81.691406 Z M 67.480469 56.296875 " fill-opacity="1" fill-rule="nonzero"/></g><g clip-path="url(#86f6adec5d)"><path fill="#5fd190" d="M 83.011719 83.121094 C 82.945312 83.019531 82.855469 82.9375 82.75 82.882812 C 82.640625 82.824219 82.523438 82.796875 82.402344 82.796875 C 82.28125 82.796875 82.164062 82.824219 82.058594 82.882812 C 81.949219 82.9375 81.863281 83.019531 81.792969 83.121094 L 67.027344 108.515625 C 66.890625 108.75 66.890625 108.980469 67.027344 109.214844 C 67.160156 109.445312 67.363281 109.5625 67.636719 109.5625 L 97.171875 109.5625 C 97.441406 109.5625 97.644531 109.445312 97.78125 109.214844 C 97.914062 108.980469 97.914062 108.75 97.78125 108.515625 Z M 83.011719 83.121094 " fill-opacity="1" fill-rule="nonzero"/></g><g clip-path="url(#ea5aff61c1)"><path fill="#b47700" d="M 98.542969 56.296875 C 98.472656 56.195312 98.386719 56.113281 98.277344 56.058594 C 98.171875 56 98.054688 55.972656 97.933594 55.972656 C 97.808594 55.972656 97.695312 56 97.585938 56.058594 C 97.480469 56.113281 97.390625 56.195312 97.324219 56.296875 L 82.554688 81.691406 C 82.421875 81.925781 82.421875 82.15625 82.554688 82.390625 C 82.691406 82.621094 82.894531 82.738281 83.164062 82.738281 L 112.699219 82.738281 C 112.972656 82.738281 113.175781 82.621094 113.308594 82.390625 C 113.445312 82.15625 113.445312 81.925781 113.308594 81.691406 Z M 98.542969 56.296875 " fill-opacity="1" fill-rule="nonzero"/></g><g clip-path="url(#929a82013d)"><path fill="#000000" d="M 114.070312 83.121094 C 114.003906 83.019531 113.917969 82.9375 113.808594 82.882812 C 113.699219 82.824219 113.585938 82.796875 113.464844 82.796875 C 113.339844 82.796875 113.226562 82.824219 113.117188 82.882812 C 113.007812 82.9375 112.921875 83.019531 112.855469 83.121094 L 98.085938 108.515625 C 97.949219 108.75 97.949219 108.980469 98.085938 109.214844 C 98.222656 109.445312 98.425781 109.5625 98.695312 109.5625 L 128.230469 109.5625 C 128.5 109.5625 128.703125 109.445312 128.839844 109.214844 C 128.976562 108.980469 128.976562 108.75 128.839844 108.515625 Z M 114.070312 83.121094 " fill-opacity="1" fill-rule="nonzero"/></g><g clip-path="url(#f3259aba42)"><path fill="#86813b" d="M 51.953125 83.121094 C 51.882812 83.019531 51.796875 82.9375 51.6875 82.882812 C 51.582031 82.824219 51.464844 82.796875 51.34375 82.796875 C 51.21875 82.796875 51.105469 82.824219 50.996094 82.882812 C 50.890625 82.9375 50.800781 83.019531 50.734375 83.121094 L 35.964844 108.515625 C 35.832031 108.75 35.832031 108.980469 35.964844 109.214844 C 36.101562 109.445312 36.304688 109.5625 36.574219 109.5625 L 66.109375 109.5625 C 66.382812 109.5625 66.582031 109.445312 66.71875 109.214844 C 66.855469 108.980469 66.855469 108.75 66.71875 108.515625 Z M 51.953125 83.121094 " fill-opacity="1" fill-rule="nonzero"/></g><g clip-path="url(#70bd38c80e)"><path fill="#737373" d="M 36.421875 56.296875 C 36.355469 56.195312 36.265625 56.113281 36.15625 56.058594 C 36.050781 56 35.933594 55.972656 35.8125 55.972656 C 35.691406 55.972656 35.574219 56 35.46875 56.058594 C 35.359375 56.113281 35.269531 56.195312 35.203125 56.296875 L 20.4375 81.691406 C 20.300781 81.925781 20.300781 82.15625 20.4375 82.390625 C 20.570312 82.621094 20.773438 82.738281 21.042969 82.738281 L 50.582031 82.738281 C 50.851562 82.738281 51.054688 82.621094 51.1875 82.390625 C 51.324219 82.15625 51.324219 81.925781 51.1875 81.691406 Z M 36.421875 56.296875 " fill-opacity="1" fill-rule="nonzero"/></g><g clip-path="url(#302fc077a4)"><path fill="#8fe670" d="M 20.890625 83.121094 C 20.824219 83.019531 20.734375 82.9375 20.628906 82.882812 C 20.519531 82.824219 20.40625 82.796875 20.28125 82.796875 C 20.160156 82.796875 20.042969 82.824219 19.9375 82.882812 C 19.828125 82.9375 19.742188 83.019531 19.671875 83.121094 L 4.90625 108.515625 C 4.769531 108.75 4.769531 108.980469 4.90625 109.214844 C 5.042969 109.445312 5.242188 109.5625 5.515625 109.5625 L 35.050781 109.5625 C 35.320312 109.5625 35.523438 109.445312 35.660156 109.214844 C 35.792969 108.980469 35.792969 108.75 35.660156 108.515625 Z M 20.890625 83.121094 " fill-opacity="1" fill-rule="nonzero"/></g><g clip-path="url(#187f1fc494)"><path fill="#5fd190" d="M 83.011719 29.46875 C 82.945312 29.367188 82.855469 29.289062 82.75 29.230469 C 82.640625 29.175781 82.523438 29.144531 82.402344 29.144531 C 82.28125 29.144531 82.164062 29.175781 82.058594 29.230469 C 81.949219 29.289062 81.863281 29.367188 81.792969 29.46875 L 67.027344 54.867188 C 66.890625 55.097656 66.890625 55.332031 67.027344 55.566406 C 67.160156 55.796875 67.363281 55.914062 67.636719 55.914062 L 97.171875 55.914062 C 97.441406 55.914062 97.644531 55.796875 97.78125 55.566406 C 97.914062 55.332031 97.914062 55.097656 97.78125 54.867188 Z M 83.011719 29.46875 " fill-opacity="1" fill-rule="nonzero"/></g><g clip-path="url(#9b80ac7ae8)"><path fill="#794c18" d="M 52.71875 29.46875 C 52.648438 29.367188 52.5625 29.289062 52.453125 29.230469 C 52.347656 29.175781 52.230469 29.144531 52.109375 29.144531 C 51.988281 29.144531 51.871094 29.175781 51.765625 29.230469 C 51.65625 29.289062 51.566406 29.367188 51.5 29.46875 L 36.734375 54.867188 C 36.597656 55.097656 36.597656 55.332031 36.734375 55.566406 C 36.867188 55.796875 37.070312 55.914062 37.339844 55.914062 L 66.875 55.914062 C 67.148438 55.914062 67.351562 55.796875 67.484375 55.566406 C 67.621094 55.332031 67.621094 55.097656 67.484375 54.867188 Z M 52.71875 29.46875 " fill-opacity="1" fill-rule="nonzero"/></g></svg>